<?xml version="1.0" encoding="utf-8"?>
<!DOCTYPE svg PUBLIC "-//W3C//DTD SVG 20010904//EN" "http://www.w3.org/TR/2001/REC-SVG-20010904/DTD/svg10.dtd">
<svg version="1.0" xmlns="http://www.w3.org/2000/svg" width="502pt" height="502pt" viewBox="0 0 502 502" preserveAspectRatio="xMidYMid meet">
<g fill="#6FD57EFE">
<path d="M 151.00 420.15 C 149.62 419.17 130.50 405.83 108.50 390.50 C 86.50 375.17 60.85 357.17 51.50 350.48 C 42.15 343.80 32.59 337.07 30.25 335.53 L 26.00 332.73 L 26.01 258.62 L 26.02 184.50 L 29.26 182.32 C 32.66 180.03 48.72 168.36 78.66 146.43 C 88.47 139.24 106.62 125.94 119.00 116.87 C 131.38 107.81 145.13 97.85 149.56 94.75 L 157.62 89.10 L 197.06 117.34 C 218.75 132.87 245.50 152.03 256.50 159.90 C 267.50 167.78 276.73 174.43 277.00 174.70 C 277.27 174.96 277.50 181.89 277.50 190.10 C 277.50 200.50 277.17 204.89 276.40 204.60 C 275.80 204.37 259.60 192.96 240.40 179.25 C 221.21 165.53 194.55 146.57 181.16 137.11 L 156.82 119.92 L 144.16 129.33 C 124.82 143.70 56.79 193.44 53.72 195.45 L 51.00 197.23 L 51.00 258.43 L 51.00 319.62 L 53.75 321.64 C 59.80 326.09 125.47 372.39 139.80 382.31 L 155.11 392.91 L 166.80 384.29 C 173.24 379.55 181.65 373.34 185.50 370.49 C 189.35 367.64 203.07 357.66 216.00 348.33 C 228.93 338.99 247.60 325.43 257.50 318.18 C 267.40 310.94 275.73 305.01 276.00 305.01 C 276.27 305.01 276.50 311.62 276.50 319.71 L 276.50 334.41 L 254.00 350.73 C 241.62 359.71 224.30 372.30 215.50 378.72 C 174.58 408.58 155.69 422.00 154.64 421.97 C 154.01 421.95 152.38 421.13 151.00 420.15Z"/></g>
<g fill="#6FD57EFE">
<path d="M 145.45 364.73 C 139.93 360.75 120.69 346.97 102.70 334.10 L 69.98 310.69 L 70.24 258.60 L 70.50 206.50 L 90.69 191.50 C 101.79 183.25 121.29 169.01 134.02 159.86 L 157.16 143.23 L 174.83 155.90 C 184.55 162.88 201.46 174.84 212.41 182.48 L 232.33 196.38 L 228.77 199.45 C 226.82 201.14 222.06 204.70 218.20 207.36 L 211.19 212.20 L 188.84 196.27 C 157.60 174.00 156.91 173.55 155.44 174.60 C 154.74 175.09 144.25 182.70 132.13 191.50 C 120.01 200.30 106.70 209.96 102.55 212.96 L 95.00 218.43 L 95.00 258.02 C 95.00 288.20 95.30 297.99 96.25 299.18 C 96.94 300.04 105.11 306.04 114.41 312.50 C 123.71 318.96 136.91 328.25 143.74 333.13 C 150.95 338.29 156.65 341.72 157.33 341.31 C 157.97 340.91 165.25 335.65 173.50 329.60 C 200.48 309.84 213.20 301.00 214.67 301.00 C 216.70 301.00 233.97 313.28 233.63 314.48 C 233.37 315.39 225.42 321.43 205.50 335.88 C 201.10 339.07 188.18 348.50 176.79 356.84 C 165.39 365.18 155.94 371.99 155.79 371.98 C 155.63 371.97 150.98 368.70 145.45 364.73Z"/></g>
<g fill="#6FD57EFE">
<path d="M 224.45 112.91 C 216.23 106.81 208.84 101.18 208.04 100.41 C 206.78 99.20 226.07 99.00 345.32 99.00 L 484.06 99.00 L 483.78 111.25 L 483.50 123.50 L 361.45 123.75 L 239.41 124.01 L 224.45 112.91Z"/></g>
<g fill="#6FD57EFE">
<path d="M 383.00 313.86 C 377.77 310.01 372.60 306.21 371.50 305.41 C 369.53 303.98 369.50 302.70 369.30 222.98 L 369.11 142.00 L 425.55 142.00 L 482.00 142.00 L 482.00 154.50 L 482.00 167.00 L 438.00 167.00 L 394.00 167.00 L 394.00 244.00 C 394.00 286.35 393.66 320.97 393.25 320.93 C 392.84 320.89 388.23 317.70 383.00 313.86Z"/></g>
<g fill="#6FD57EFE">
<path d="M 329.00 244.12 L 329.00 167.00 L 313.58 167.00 L 298.16 167.00 L 283.33 155.89 C 275.17 149.79 267.84 144.16 267.04 143.39 C 265.78 142.20 271.79 142.00 308.79 142.00 L 352.00 142.00 L 352.00 223.40 L 352.00 304.80 L 343.25 311.26 C 338.44 314.82 333.26 318.51 331.75 319.48 L 329.00 321.23 L 329.00 244.12Z"/></g>
<g fill="#6FD57EFE">
<path d="M 329.00 358.59 L 329.00 346.19 L 334.25 342.36 C 348.77 331.79 361.35 323.01 361.89 323.06 C 362.23 323.10 369.48 328.16 378.00 334.31 L 393.50 345.50 L 393.78 357.75 C 393.94 364.49 393.71 369.99 393.28 369.99 C 392.85 369.98 385.98 365.21 378.00 359.38 C 370.02 353.56 362.99 348.59 362.38 348.34 C 361.76 348.09 357.26 350.76 352.38 354.27 C 347.49 357.79 340.24 362.99 336.25 365.83 L 329.00 370.99 L 329.00 358.59Z"/></g>
<g fill="#6FD57EFE">
<path d="M 329.00 403.69 L 329.00 392.39 L 333.75 389.01 C 351.51 376.40 361.00 370.00 361.95 370.00 C 363.45 370.00 393.06 391.00 393.62 392.46 C 393.87 393.10 393.94 398.50 393.79 404.45 L 393.50 415.26 L 378.56 404.53 C 370.34 398.62 363.02 393.56 362.30 393.28 C 361.57 393.00 354.04 397.78 345.57 403.89 C 337.09 410.00 329.90 415.00 329.58 415.00 C 329.26 415.00 329.00 409.91 329.00 403.69Z"/></g>
</svg>
